<svg version="1.1" id="Layer_1" xmlns="http://www.w3.org/2000/svg" xmlns:xlink="http://www.w3.org/1999/xlink" x="0px" y="0px"
	 width="100%" viewBox="0 0 464 463" enable-background="new 0 0 464 463" xml:space="preserve">
<path fill="#2E1B40" opacity="1.000000" stroke="none" 
	d="
M465.000000,385.000000 
	C465.000000,389.024536 465.000000,393.049103 464.638062,397.621277 
	C463.478241,400.449524 462.510040,402.686310 461.910614,405.017944 
	C458.414001,418.619446 452.163300,430.868347 442.282715,440.765961 
	C431.791473,451.275269 419.000702,458.123230 404.285919,461.158447 
	C402.408447,461.545654 400.756439,463.026031 399.000000,464.000000 
	C288.645782,464.000000 178.291550,464.000000 67.378967,463.639526 
	C64.695724,462.528290 62.613953,461.608368 60.439003,461.054077 
	C45.808743,457.325531 32.793270,450.579376 22.420067,439.550140 
	C12.809151,429.331451 6.903587,416.956024 3.362120,403.410614 
	C2.951941,401.841797 1.805236,400.465546 1.000001,399.000000 
	C1.000000,398.250000 1.000000,397.500000 1.351777,396.343994 
	C2.249063,394.754608 3.173574,393.597717 3.258668,392.382111 
	C3.419941,390.078247 2.995354,387.740723 2.994865,385.417114 
	C2.978755,308.835144 2.902342,232.253021 3.029737,155.671265 
	C3.075671,128.059021 3.668674,100.447861 3.807129,72.835182 
	C3.815187,71.228188 1.978299,69.611938 1.000001,68.000000 
	C1.000000,67.250000 1.000000,66.500000 1.355309,65.292206 
	C2.380848,63.373550 3.303154,61.974941 3.681782,60.442047 
	C6.972470,47.119507 12.984512,35.197456 22.503868,25.307163 
	C33.012440,14.389110 45.970551,7.613388 60.669342,4.014446 
	C63.206802,3.393159 65.561096,2.023809 68.000000,1.000001 
	C70.370560,1.000000 72.741112,1.000000 75.812492,1.182648 
	C77.675545,1.243531 78.837769,1.121765 80.000000,1.000000 
	C80.444443,1.000000 80.888893,1.000000 81.801582,1.277480 
	C83.513222,1.369973 84.756607,1.184986 86.000000,1.000000 
	C87.066673,1.000000 88.133339,1.000000 89.716400,1.074280 
	C90.232788,1.148560 90.634270,1.179930 90.634270,1.179930 
	C90.634270,1.179930 91.000000,1.000000 91.000000,1.000000 
	C97.687645,1.000000 104.375290,1.000000 111.731659,1.325318 
	C113.770828,2.086012 115.140221,2.897467 116.511848,2.901247 
	C144.093903,2.977249 171.676331,2.992686 199.258087,2.878299 
	C200.841293,2.871733 202.419479,1.654037 204.000000,0.999999 
	C205.066666,1.000000 206.133347,1.000000 207.798721,1.326157 
	C214.012375,3.490312 219.592712,4.447471 225.000000,1.000000 
	C227.700012,1.000000 230.400024,1.000000 233.750702,1.325071 
	C244.270706,1.776058 254.140045,1.901974 264.193848,1.875725 
	C264.617188,1.509552 264.824402,1.268365 265.000000,1.000000 
	C265.444458,1.000000 265.888885,1.000000 266.781647,1.080327 
	C267.229950,1.160654 267.636475,1.195273 267.636475,1.195273 
	C267.636475,1.195273 268.000000,1.000000 268.000000,1.000000 
	C269.388885,1.000000 270.777802,1.000000 272.697693,1.081438 
	C273.228699,1.162875 273.635803,1.195739 273.635803,1.195739 
	C273.635803,1.195739 274.000000,1.000000 274.000000,1.000000 
	C284.687561,1.000000 295.375122,1.000000 306.645264,1.083065 
	C307.227875,1.166130 307.636353,1.199847 307.636353,1.199847 
	C307.636353,1.199847 308.000000,1.000000 308.000000,1.000000 
	C310.700012,1.000000 313.400024,1.000000 316.664368,1.082617 
	C317.228668,1.165234 317.637024,1.200450 317.637024,1.200450 
	C317.637024,1.200450 318.000000,1.000000 318.000000,1.000000 
	C321.692902,1.000000 325.385834,1.000000 329.653290,1.082988 
	C330.227844,1.165976 330.636230,1.199482 330.636230,1.199482 
	C330.636230,1.199482 331.000000,1.000000 331.000000,1.000000 
	C332.714355,1.000000 334.428711,1.000000 336.733673,1.301693 
	C339.442688,3.532713 341.350372,3.480208 343.000000,1.000000 
	C361.354218,1.000000 379.708466,1.000000 398.622192,1.359778 
	C402.768463,2.828485 406.361847,3.916490 409.940887,5.049692 
	C436.141510,13.345373 453.628021,30.220432 460.947052,57.245972 
	C461.167053,58.352745 461.490204,59.208603 461.856323,60.307175 
	C461.899323,60.549885 461.989227,61.034584 461.909851,61.382866 
	C461.627136,64.759628 460.889404,67.880959 461.394257,70.786400 
	C461.778809,72.999619 463.740173,74.938866 465.000000,77.000000 
	C465.000000,78.388893 465.000000,79.777779 464.673859,81.783859 
	C463.899719,84.603790 463.070038,86.805130 463.061920,89.009499 
	C462.965637,115.154037 462.987061,141.299042 462.986877,167.443909 
	C462.986420,237.552124 462.970459,307.660370 463.077209,377.768433 
	C463.080902,380.179901 464.330933,382.589508 465.000000,385.000000 
M153.935806,461.997192 
	C163.291382,461.996094 172.646973,461.994995 182.939545,461.995422 
	C228.030380,461.996490 273.122131,462.169830 318.211700,461.928650 
	C342.119720,461.800720 366.039307,460.220306 389.923737,460.721558 
	C402.994507,460.995880 413.278992,454.330811 424.820404,450.801239 
	C424.967285,450.756317 424.958527,450.202637 425.175323,449.129639 
	C423.478943,448.888580 421.839111,448.545349 420.184448,448.443756 
	C416.943878,448.244843 410.607910,442.636963 411.558472,439.822296 
	C413.518494,434.018585 409.975525,433.084686 406.502289,431.555908 
	C427.749664,419.491608 438.249573,401.605408 438.176727,376.810120 
	C437.898621,282.147675 438.093292,187.483902 438.033875,92.820686 
	C438.029816,86.350433 437.821075,79.821625 436.949585,73.423286 
	C435.331451,61.542915 430.386047,51.089596 421.413361,42.927654 
	C409.482758,32.075146 395.042694,27.869999 379.210144,27.865198 
	C280.880341,27.835382 182.550476,27.783062 84.220741,27.864140 
	C51.493916,27.891125 27.935644,51.710789 27.929039,84.467384 
	C27.909645,180.630463 27.915398,276.793518 27.978798,372.956573 
	C27.982622,378.755890 28.089363,384.630890 28.981714,390.340363 
	C32.287571,411.492096 43.557209,426.310486 64.244377,433.324829 
	C67.028389,434.268768 69.728638,435.459747 71.882301,437.031311 
	C71.251625,438.018433 70.620941,439.005554 69.828102,440.536774 
	C72.873779,441.880371 75.919464,443.223938 78.965141,444.567505 
	C76.642502,446.105316 74.053749,446.449951 71.515465,447.019501 
	C66.885048,448.058472 62.236446,449.067993 57.690453,450.411346 
	C55.153980,451.160919 55.107212,452.730438 56.706036,454.967529 
	C59.488647,458.860748 63.256161,460.437347 67.763420,460.590454 
	C82.841072,461.102509 97.921440,461.534729 113.932869,461.998718 
	C118.620926,461.997559 123.308975,461.996399 128.932907,461.997528 
	C134.289017,461.997528 139.645111,461.997559 145.889221,461.998688 
	C148.258911,461.997894 150.628586,461.997101 153.935806,461.997192 
z"/>
<path fill="#000000" opacity="1.000000" stroke="none" 
	d="
M399.468658,464.000000 
	C400.756439,463.026031 402.408447,461.545654 404.285919,461.158447 
	C419.000702,458.123230 431.791473,451.275269 442.282715,440.765961 
	C452.163300,430.868347 458.414001,418.619446 461.910614,405.017944 
	C462.510040,402.686310 463.478241,400.449524 464.638062,398.084473 
	C465.000000,419.926849 465.000000,441.853668 465.000000,464.000000 
	C443.312927,464.000000 421.625122,464.000000 399.468658,464.000000 
z"/>
<path fill="#000000" opacity="1.000000" stroke="none" 
	d="
M1.000001,399.468658 
	C1.805236,400.465546 2.951941,401.841797 3.362120,403.410614 
	C6.903587,416.956024 12.809151,429.331451 22.420067,439.550140 
	C32.793270,450.579376 45.808743,457.325531 60.439003,461.054077 
	C62.613953,461.608368 64.695724,462.528290 66.910309,463.639526 
	C45.073723,464.000000 23.147442,464.000000 1.000000,464.000000 
	C1.000000,442.646271 1.000000,421.291809 1.000001,399.468658 
z"/>
<path fill="#000000" opacity="1.000000" stroke="none" 
	d="
M67.531342,1.000001 
	C65.561096,2.023809 63.206802,3.393159 60.669342,4.014446 
	C45.970551,7.613388 33.012440,14.389110 22.503868,25.307163 
	C12.984512,35.197456 6.972470,47.119507 3.681782,60.442047 
	C3.303154,61.974941 2.380848,63.373550 1.355309,64.917206 
	C1.000000,43.738155 1.000000,22.476313 1.000000,1.000000 
	C23.020430,1.000000 45.041557,1.000000 67.531342,1.000001 
z"/>
<path fill="#000000" opacity="1.000000" stroke="none" 
	d="
M461.050171,56.995064 
	C453.628021,30.220432 436.141510,13.345373 409.940887,5.049692 
	C406.361847,3.916490 402.768463,2.828485 399.090881,1.359778 
	C420.926270,1.000000 442.852539,1.000000 465.000000,1.000000 
	C465.000000,22.353718 465.000000,43.708202 464.685913,65.411423 
	C463.577637,64.184967 462.783417,62.609776 461.989227,61.034584 
	C461.989227,61.034584 461.899323,60.549885 461.882019,59.980316 
	C461.593201,58.605522 461.321686,57.800293 461.050171,56.995064 
z"/>
<path fill="#1D0E31" opacity="1.000000" stroke="none" 
	d="
M1.000001,68.468658 
	C1.978299,69.611938 3.815187,71.228188 3.807129,72.835182 
	C3.668674,100.447861 3.075671,128.059021 3.029737,155.671265 
	C2.902342,232.253021 2.978755,308.835144 2.994865,385.417114 
	C2.995354,387.740723 3.419941,390.078247 3.258668,392.382111 
	C3.173574,393.597717 2.249063,394.754608 1.351777,395.968994 
	C1.000000,286.979095 1.000000,177.958206 1.000001,68.468658 
z"/>
<path fill="#1D0F2C" opacity="1.000000" stroke="none" 
	d="
M465.000000,384.531342 
	C464.330933,382.589508 463.080902,380.179901 463.077209,377.768433 
	C462.970459,307.660370 462.986420,237.552124 462.986877,167.443909 
	C462.987061,141.299042 462.965637,115.154037 463.061920,89.009499 
	C463.070038,86.805130 463.899719,84.603790 464.673859,82.200523 
	C465.000000,182.687561 465.000000,283.375122 465.000000,384.531342 
z"/>
<path fill="#1C0E2B" opacity="1.000000" stroke="none" 
	d="
M203.531342,0.999999 
	C202.419479,1.654037 200.841293,2.871733 199.258087,2.878299 
	C171.676331,2.992686 144.093903,2.977249 116.511848,2.901247 
	C115.140221,2.897467 113.770828,2.086012 112.200195,1.325318 
	C142.354233,1.000000 172.708450,1.000000 203.531342,0.999999 
z"/>
<path fill="#1C0E2B" opacity="1.000000" stroke="none" 
	d="
M264.009369,2.027890 
	C254.140045,1.901974 244.270706,1.776058 234.200684,1.325071 
	C243.687561,1.000000 253.375122,1.000000 263.533264,1.256976 
	C264.005707,1.685265 264.007538,1.856577 264.009369,2.027890 
z"/>
<path fill="#1D0F2C" opacity="1.000000" stroke="none" 
	d="
M461.909851,61.382866 
	C462.783417,62.609776 463.577637,64.184967 464.685913,65.880081 
	C465.000000,69.361290 465.000000,72.722572 465.000000,76.541931 
	C463.740173,74.938866 461.778809,72.999619 461.394257,70.786400 
	C460.889404,67.880959 461.627136,64.759628 461.909851,61.382866 
z"/>
<path fill="#1C0E2B" opacity="1.000000" stroke="none" 
	d="
M224.532394,1.000000 
	C219.592712,4.447471 214.012375,3.490312 208.198715,1.326157 
	C213.354935,1.000000 218.709854,1.000000 224.532394,1.000000 
z"/>
<path fill="#1C0E2B" opacity="1.000000" stroke="none" 
	d="
M342.571533,1.000000 
	C341.350372,3.480208 339.442688,3.532713 337.162140,1.301693 
	C338.714355,1.000000 340.428711,1.000000 342.571533,1.000000 
z"/>
<path fill="#1C0E2B" opacity="1.000000" stroke="none" 
	d="
M85.600006,1.000000 
	C84.756607,1.184986 83.513222,1.369973 82.134918,1.277480 
	C83.066673,1.000000 84.133339,1.000000 85.600006,1.000000 
z"/>
<path fill="#1C0E2B" opacity="1.000000" stroke="none" 
	d="
M79.600006,1.000000 
	C78.837769,1.121765 77.675545,1.243531 76.256653,1.182648 
	C77.066673,1.000000 78.133339,1.000000 79.600006,1.000000 
z"/>
<path fill="#1C0E2B" opacity="1.000000" stroke="none" 
	d="
M90.750000,1.000000 
	C91.000000,1.000000 90.634270,1.179930 90.634270,1.179930 
	C90.634270,1.179930 90.232788,1.148560 90.116394,1.074280 
	C90.000000,1.000000 90.500000,1.000000 90.750000,1.000000 
z"/>
<path fill="#1A0D2B" opacity="1.000000" stroke="none" 
	d="
M264.193848,1.875725 
	C264.007538,1.856577 264.005707,1.685265 264.001953,1.256976 
	C264.000000,1.000000 264.500000,1.000000 264.750000,1.000000 
	C264.824402,1.268365 264.617188,1.509552 264.193848,1.875725 
z"/>
<path fill="#1A0D2B" opacity="1.000000" stroke="none" 
	d="
M267.750000,1.000000 
	C268.000000,1.000000 267.636475,1.195273 267.636475,1.195273 
	C267.636475,1.195273 267.229950,1.160654 267.114990,1.080327 
	C267.000000,1.000000 267.500000,1.000000 267.750000,1.000000 
z"/>
<path fill="#1A0D2B" opacity="1.000000" stroke="none" 
	d="
M273.750000,1.000000 
	C274.000000,1.000000 273.635803,1.195739 273.635803,1.195739 
	C273.635803,1.195739 273.228699,1.162875 273.114349,1.081438 
	C273.000000,1.000000 273.500000,1.000000 273.750000,1.000000 
z"/>
<path fill="#1A0D2B" opacity="1.000000" stroke="none" 
	d="
M307.750000,1.000000 
	C308.000000,1.000000 307.636353,1.199847 307.636353,1.199847 
	C307.636353,1.199847 307.227875,1.166130 307.113953,1.083065 
	C307.000000,1.000000 307.500000,1.000000 307.750000,1.000000 
z"/>
<path fill="#1A0D2B" opacity="1.000000" stroke="none" 
	d="
M330.750000,1.000000 
	C331.000000,1.000000 330.636230,1.199482 330.636230,1.199482 
	C330.636230,1.199482 330.227844,1.165976 330.113922,1.082988 
	C330.000000,1.000000 330.500000,1.000000 330.750000,1.000000 
z"/>
<path fill="#1A0D2B" opacity="1.000000" stroke="none" 
	d="
M317.750000,1.000000 
	C318.000000,1.000000 317.637024,1.200450 317.637024,1.200450 
	C317.637024,1.200450 317.228668,1.165234 317.114319,1.082617 
	C317.000000,1.000000 317.500000,1.000000 317.750000,1.000000 
z"/>
<path fill="#000000" opacity="1.000000" stroke="none" 
	d="
M72.467667,436.536316 
	C69.728638,435.459747 67.028389,434.268768 64.244377,433.324829 
	C43.557209,426.310486 32.287571,411.492096 28.981714,390.340363 
	C28.089363,384.630890 27.982622,378.755890 27.978798,372.956573 
	C27.915398,276.793518 27.909645,180.630463 27.929039,84.467384 
	C27.935644,51.710789 51.493916,27.891125 84.220741,27.864140 
	C182.550476,27.783062 280.880341,27.835382 379.210144,27.865198 
	C395.042694,27.869999 409.482758,32.075146 421.413361,42.927654 
	C430.386047,51.089596 435.331451,61.542915 436.949585,73.423286 
	C437.821075,79.821625 438.029816,86.350433 438.033875,92.820686 
	C438.093292,187.483902 437.898621,282.147675 438.176727,376.810120 
	C438.249573,401.605408 427.749664,419.491608 405.922485,431.920105 
	C401.565094,433.587067 397.787506,434.889771 393.557983,436.154755 
	C388.478729,436.429718 383.851929,437.003479 379.223907,437.013702 
	C343.131134,437.093384 307.038116,437.042236 270.945221,437.081390 
	C257.976135,437.095459 245.007156,437.246368 231.606445,437.284912 
	C229.439667,437.262329 227.704559,437.289642 225.513672,437.250763 
	C221.049881,437.227844 217.041885,437.271118 212.572632,437.265015 
	C208.395996,437.258881 204.680603,437.302094 200.504730,437.277222 
	C192.374939,437.248657 184.705627,437.288147 176.570282,437.277130 
	C171.392395,437.258148 166.680557,437.289673 161.508636,437.254761 
	C155.711472,437.238068 150.374344,437.287872 144.569061,437.285889 
	C128.392654,437.244751 112.684418,437.255402 96.514595,437.204712 
	C89.325508,436.973969 82.598007,436.804657 75.525200,436.604614 
	C74.275818,436.561371 73.371742,436.548859 72.467667,436.536316 
M45.600136,284.124725 
	C45.677185,285.614990 45.754238,287.105286 45.616528,289.529144 
	C45.449631,319.334198 45.269924,349.139160 45.147270,378.944397 
	C45.139812,380.756317 45.585232,382.570068 45.461658,384.965607 
	C46.126411,404.931183 61.402790,419.916077 81.550209,419.926788 
	C182.358871,419.980408 283.167786,420.015320 383.975708,419.727661 
	C390.043701,419.710358 396.601593,417.841553 402.070557,415.110321 
	C416.428101,407.940094 420.854126,394.705017 420.866028,379.713165 
	C420.944885,280.571381 421.019836,181.429108 420.658173,82.288589 
	C420.633270,75.466400 418.212616,68.027145 414.898132,61.974403 
	C408.213623,49.767403 396.394409,45.132839 382.990021,45.117695 
	C286.013702,45.008110 189.037170,45.042583 92.060768,45.106285 
	C85.926956,45.110313 79.770821,45.516411 73.664627,46.129417 
	C60.454594,47.455585 46.886162,60.646648 46.163307,73.809769 
	C45.435558,87.061920 45.848892,100.376732 45.477833,114.510109 
	C45.350647,116.501572 45.113285,118.492973 45.112373,120.484497 
	C45.088726,172.314560 45.079620,224.144623 45.117172,275.974670 
	C45.118965,278.451019 45.570572,280.927063 45.600136,284.124725 
z"/>
<path fill="#311D43" opacity="1.000000" stroke="none" 
	d="
M394.009918,436.192505 
	C397.787506,434.889771 401.565094,433.587067 405.674805,432.147583 
	C409.975525,433.084686 413.518494,434.018585 411.558472,439.822296 
	C410.607910,442.636963 416.943878,448.244843 420.184448,448.443756 
	C421.839111,448.545349 423.478943,448.888580 425.175323,449.129639 
	C424.958527,450.202637 424.967285,450.756317 424.820404,450.801239 
	C413.278992,454.330811 402.994507,460.995880 389.923737,460.721558 
	C366.039307,460.220306 342.119720,461.800720 318.211700,461.928650 
	C273.122131,462.169830 228.030380,461.996490 182.562897,461.670197 
	C183.534286,459.511536 184.882309,457.678101 186.606995,455.332367 
	C182.835953,452.876434 179.436142,449.147491 175.461472,448.374512 
	C165.816589,446.498810 155.880341,446.177979 146.108475,444.877686 
	C140.025848,444.068329 135.129440,443.868500 129.896027,449.061798 
	C123.173950,455.732361 122.359703,454.911835 127.997032,461.995209 
	C123.308975,461.996399 118.620926,461.997559 113.507629,461.597656 
	C114.971260,451.319153 110.460693,446.183624 100.317131,444.733368 
	C95.701477,444.073395 91.430725,441.001160 87.445953,439.018280 
	C90.917648,438.430969 93.946922,437.848511 96.976189,437.266052 
	C112.684418,437.255402 128.392654,437.244751 144.796921,437.563660 
	C151.042709,439.368042 156.571655,440.244415 161.968704,437.321228 
	C166.680557,437.289673 171.392395,437.258148 176.797638,437.556702 
	C184.171005,438.243561 190.848587,438.682983 197.533279,438.876709 
	C198.661514,438.909363 199.820465,437.882599 200.965210,437.345337 
	C204.680603,437.302094 208.395996,437.258881 212.796936,437.544189 
	C217.644791,437.687500 221.807129,437.502258 225.969452,437.316986 
	C227.704559,437.289642 229.439667,437.262329 231.834229,437.563354 
	C234.730286,438.261078 236.966476,438.949829 239.203568,438.952789 
	C286.762604,439.015503 334.321747,439.014130 381.880859,438.973816 
	C385.190735,438.971008 388.517517,438.697083 391.797821,438.259796 
	C392.612579,438.151245 393.276611,436.912018 394.009918,436.192505 
z"/>
<path fill="#311C43" opacity="1.000000" stroke="none" 
	d="
M87.003525,439.023132 
	C91.430725,441.001160 95.701477,444.073395 100.317131,444.733368 
	C110.460693,446.183624 114.971260,451.319153 113.041573,461.597107 
	C97.921440,461.534729 82.841072,461.102509 67.763420,460.590454 
	C63.256161,460.437347 59.488647,458.860748 56.706036,454.967529 
	C55.107212,452.730438 55.153980,451.160919 57.690453,450.411346 
	C62.236446,449.067993 66.885048,448.058472 71.515465,447.019501 
	C74.053749,446.449951 76.642502,446.105316 78.965141,444.567505 
	C75.919464,443.223938 72.873779,441.880371 70.255585,440.404144 
	C72.789154,439.847260 74.895226,439.423004 77.455322,438.999084 
	C80.940742,439.007263 83.972137,439.015198 87.003525,439.023132 
M71.057556,451.944946 
	C68.328064,450.702301 65.795166,450.366943 63.765923,453.337524 
	C68.539261,456.000610 70.776939,455.684296 71.057556,451.944946 
z"/>
<path fill="#311C43" opacity="1.000000" stroke="none" 
	d="
M128.464966,461.996368 
	C122.359703,454.911835 123.173950,455.732361 129.896027,449.061798 
	C135.129440,443.868500 140.025848,444.068329 146.108475,444.877686 
	C155.880341,446.177979 165.816589,446.498810 175.461472,448.374512 
	C179.436142,449.147491 182.835953,452.876434 186.606995,455.332367 
	C184.882309,457.678101 183.534286,459.511536 182.094406,461.669434 
	C172.646973,461.994995 163.291382,461.996094 153.361542,461.671906 
	C148.921890,457.303589 147.027390,457.461975 145.001221,461.997559 
	C139.645111,461.997559 134.289017,461.997528 128.464966,461.996368 
z"/>
<path fill="#311D43" opacity="1.000000" stroke="none" 
	d="
M145.445221,461.998108 
	C147.027390,457.461975 148.921890,457.303589 152.892761,461.671478 
	C150.628586,461.997101 148.258911,461.997894 145.445221,461.998108 
z"/>
<path fill="#311D43" opacity="1.000000" stroke="none" 
	d="
M77.001312,438.998779 
	C74.895226,439.423004 72.789154,439.847260 70.336670,440.132080 
	C70.620941,439.005554 71.251625,438.018433 72.174988,436.783813 
	C73.371742,436.548859 74.275818,436.561371 75.660950,436.907288 
	C76.428444,437.826691 76.714874,438.412750 77.001312,438.998779 
z"/>
<path fill="#1D0F2C" opacity="1.000000" stroke="none" 
	d="
M460.947021,57.245979 
	C461.321686,57.800293 461.593201,58.605522 461.839050,59.737610 
	C461.490204,59.208603 461.167053,58.352745 460.947021,57.245979 
z"/>
<path fill="#311C43" opacity="1.000000" stroke="none" 
	d="
M45.762238,113.664093 
	C45.848892,100.376732 45.435558,87.061920 46.163307,73.809769 
	C46.886162,60.646648 60.454594,47.455585 73.664627,46.129417 
	C79.770821,45.516411 85.926956,45.110313 92.060768,45.106285 
	C189.037170,45.042583 286.013702,45.008110 382.990021,45.117695 
	C396.394409,45.132839 408.213623,49.767403 414.898132,61.974403 
	C418.212616,68.027145 420.633270,75.466400 420.658173,82.288589 
	C421.019836,181.429108 420.944885,280.571381 420.866028,379.713165 
	C420.854126,394.705017 416.428101,407.940094 402.070557,415.110321 
	C396.601593,417.841553 390.043701,419.710358 383.975708,419.727661 
	C283.167786,420.015320 182.358871,419.980408 81.550209,419.926788 
	C61.402790,419.916077 46.126411,404.931183 45.842327,384.264160 
	C46.481255,381.770813 46.961426,379.979279 46.964550,378.186890 
	C47.012936,350.418030 47.024632,322.649017 46.949844,294.880249 
	C46.944199,292.784393 46.220955,290.690399 45.831284,288.595551 
	C45.754238,287.105286 45.677185,285.614990 45.908699,283.352997 
	C46.478672,280.622009 46.966873,278.662964 46.968395,276.703491 
	C47.008808,224.609818 47.014500,172.516098 46.945549,120.422470 
	C46.942570,118.169159 46.174114,115.916862 45.762238,113.664093 
M312.672577,92.275917 
	C312.442505,92.460930 312.226898,92.661514 311.183289,92.938591 
	C310.517365,92.969154 309.834717,92.914970 309.187866,93.042397 
	C271.712738,100.425804 234.195938,107.609375 196.798279,115.367065 
	C187.026398,117.394127 177.053436,120.583054 173.945969,132.118958 
	C172.834854,136.243744 172.021805,140.589050 171.988831,144.840790 
	C171.806732,168.337402 171.910278,191.836197 171.910324,215.334244 
	C171.910355,228.999756 171.756012,242.667587 171.976593,256.329437 
	C172.048370,260.775726 170.434113,262.350037 166.146790,262.013123 
	C163.336029,261.792297 160.413101,261.645538 157.667892,262.153992 
	C131.027222,267.088470 112.020714,281.045013 103.754387,307.815735 
	C97.676659,327.498657 105.562447,351.302216 122.757362,361.891937 
	C145.089981,375.645691 167.561844,373.383423 189.183701,360.170654 
	C206.915253,349.335144 216.938950,332.834137 218.849533,312.333191 
	C220.090683,299.015411 219.167114,285.484436 219.017227,272.051178 
	C218.805573,253.084030 218.349808,234.119690 218.124344,215.152649 
	C218.016068,206.045547 221.110764,202.101852 230.064392,200.050415 
	C249.812012,195.525894 269.589294,191.129654 289.370880,186.755051 
	C299.903046,184.425919 310.469330,182.250961 321.534515,180.665817 
	C321.760895,184.752060 321.987274,188.838318 322.084442,193.863449 
	C322.145905,208.262878 322.207367,222.662308 322.101654,237.767715 
	C322.155273,238.486053 322.208923,239.204407 322.124756,240.746399 
	C322.163879,241.855637 322.203003,242.964874 322.063660,244.913528 
	C322.128967,246.903320 322.194275,248.893112 322.142487,251.600983 
	C322.146454,252.085510 322.150391,252.570038 321.768494,253.367783 
	C321.561066,253.634308 321.307343,253.845093 320.284363,253.724503 
	C316.882172,253.058258 313.504608,252.203125 310.073822,251.756470 
	C288.291046,248.920395 269.778046,255.747452 256.025208,272.639954 
	C235.579178,297.753662 243.224091,329.410919 272.137329,342.095978 
	C282.481903,346.634399 293.363068,347.251129 304.384644,345.097626 
	C325.393127,340.992767 340.966858,329.662506 349.197784,309.666473 
	C351.859558,303.200012 352.561615,295.926849 354.553528,289.017548 
	C354.553528,289.017548 354.947968,289.015747 355.226257,289.288849 
	C355.485596,287.792847 355.970978,286.296906 355.971619,284.800812 
	C355.997192,226.549149 355.978516,168.297470 355.981018,109.427940 
	C355.865631,108.636902 355.750275,107.845863 355.634918,107.054825 
	C355.431458,107.087158 355.227997,107.119499 355.024536,107.151833 
	C355.024536,108.116211 355.024536,109.080597 355.026062,110.695923 
	C355.019714,111.129845 355.013367,111.563759 354.563324,111.989159 
	C354.563324,111.989159 354.119659,111.976921 354.055481,111.093475 
	C354.083801,108.730545 354.112122,106.367607 354.579285,103.690689 
	C355.618927,100.105865 354.596008,97.465683 350.647766,95.699379 
	C350.396118,95.484634 350.190399,95.232430 350.095642,94.359230 
	C348.182922,88.734390 343.254181,87.336517 338.386963,87.242943 
	C332.492218,87.129616 326.534821,87.996216 320.683441,88.931999 
	C318.033936,89.355721 315.574646,90.968979 312.992889,92.025475 
	C312.992889,92.025475 313.030701,92.014992 312.672577,92.275917 
z"/>
<path fill="#362549" opacity="1.000000" stroke="none" 
	d="
M45.620033,114.087097 
	C46.174114,115.916862 46.942570,118.169159 46.945549,120.422470 
	C47.014500,172.516098 47.008808,224.609818 46.968395,276.703491 
	C46.966873,278.662964 46.478672,280.622009 46.014984,282.992249 
	C45.570572,280.927063 45.118965,278.451019 45.117172,275.974670 
	C45.079620,224.144623 45.088726,172.314560 45.112373,120.484497 
	C45.113285,118.492973 45.350647,116.501572 45.620033,114.087097 
z"/>
<path fill="#2E1B40" opacity="1.000000" stroke="none" 
	d="
M393.557983,436.154724 
	C393.276611,436.912018 392.612579,438.151245 391.797821,438.259796 
	C388.517517,438.697083 385.190735,438.971008 381.880859,438.973816 
	C334.321747,439.014130 286.762604,439.015503 239.203568,438.952789 
	C236.966476,438.949829 234.730286,438.261078 232.265900,437.613251 
	C245.007156,437.246368 257.976135,437.095459 270.945221,437.081390 
	C307.038116,437.042236 343.131134,437.093384 379.223907,437.013702 
	C383.851929,437.003479 388.478729,436.429718 393.557983,436.154724 
z"/>
<path fill="#362549" opacity="1.000000" stroke="none" 
	d="
M45.723907,289.062347 
	C46.220955,290.690399 46.944199,292.784393 46.949844,294.880249 
	C47.024632,322.649017 47.012936,350.418030 46.964550,378.186890 
	C46.961426,379.979279 46.481255,381.770813 46.021465,383.972839 
	C45.585232,382.570068 45.139812,380.756317 45.147270,378.944397 
	C45.269924,349.139160 45.449631,319.334198 45.723907,289.062347 
z"/>
<path fill="#2E1B40" opacity="1.000000" stroke="none" 
	d="
M200.504730,437.277222 
	C199.820465,437.882599 198.661514,438.909363 197.533279,438.876709 
	C190.848587,438.682983 184.171005,438.243561 177.263672,437.607239 
	C184.705627,437.288147 192.374939,437.248657 200.504730,437.277222 
z"/>
<path fill="#2E1B40" opacity="1.000000" stroke="none" 
	d="
M77.455330,438.999084 
	C76.714874,438.412750 76.428444,437.826691 76.006264,436.937988 
	C82.598007,436.804657 89.325508,436.973969 96.514595,437.204681 
	C93.946922,437.848511 90.917648,438.430969 87.445953,439.018250 
	C83.972137,439.015198 80.940742,439.007263 77.455330,438.999084 
z"/>
<path fill="#2E1B40" opacity="1.000000" stroke="none" 
	d="
M161.508636,437.254761 
	C156.571655,440.244415 151.042709,439.368042 145.265106,437.615479 
	C150.374344,437.287872 155.711472,437.238068 161.508636,437.254761 
z"/>
<path fill="#2E1B40" opacity="1.000000" stroke="none" 
	d="
M225.513672,437.250763 
	C221.807129,437.502258 217.644791,437.687500 213.258179,437.593567 
	C217.041885,437.271118 221.049881,437.227844 225.513672,437.250763 
z"/>
<path fill="#2E1B40" opacity="1.000000" stroke="none" 
	d="
M71.307922,452.175049 
	C70.776939,455.684296 68.539261,456.000610 63.765923,453.337524 
	C65.795166,450.366943 68.328064,450.702301 71.307922,452.175049 
z"/>
<path fill="#000000" opacity="1.000000" stroke="none" 
	d="
M354.140442,104.004677 
	C354.112122,106.367607 354.083801,108.730545 354.044983,112.004471 
	C354.019440,148.836288 353.980713,184.757126 353.997986,220.677917 
	C354.008942,243.459534 354.103241,266.241119 354.160126,289.022705 
	C352.561615,295.926849 351.859558,303.200012 349.197784,309.666473 
	C340.966858,329.662506 325.393127,340.992767 304.384644,345.097626 
	C293.363068,347.251129 282.481903,346.634399 272.137329,342.095978 
	C243.224091,329.410919 235.579178,297.753662 256.025208,272.639954 
	C269.778046,255.747452 288.291046,248.920395 310.073822,251.756470 
	C313.504608,252.203125 316.882172,253.058258 320.695251,254.322372 
	C321.106110,258.496704 321.106110,262.073181 321.106110,266.253815 
	C317.480286,265.894775 314.609772,265.524689 311.727356,265.341492 
	C303.648285,264.828033 295.504974,263.851135 287.954437,267.953369 
	C287.985626,267.967072 288.006805,267.902313 287.686157,267.938599 
	C286.863342,268.304657 286.361145,268.634460 285.485565,268.985199 
	C278.087769,271.557343 271.674500,274.986938 267.071106,281.600433 
	C265.718048,283.238464 264.466156,284.565796 263.541870,286.091583 
	C253.724258,302.297729 259.919189,322.121674 278.395111,329.128662 
	C291.635254,334.149994 304.105927,332.094086 316.279327,326.127472 
	C322.333008,323.160339 327.840515,319.330994 331.302612,312.848083 
	C336.631805,305.855286 338.910126,298.076324 338.917450,289.693054 
	C338.968506,231.230942 338.942719,172.768784 338.939728,114.306633 
	C338.939667,112.807869 339.078308,111.287170 338.875610,109.814789 
	C338.420319,106.507843 336.576172,104.276047 333.118408,104.157234 
	C330.338898,104.061722 327.492645,104.225693 324.761505,104.733894 
	C317.853363,106.019363 311.010010,107.649506 304.110687,108.986610 
	C288.561920,111.999992 272.991882,114.903519 257.436615,117.883644 
	C248.619949,119.572769 239.793655,121.222054 231.010941,123.075256 
	C220.492691,125.294662 209.895081,127.278473 199.555954,130.166641 
	C189.264359,133.041504 185.951950,138.035126 186.119843,148.507599 
	C186.241821,156.116547 186.984192,163.718964 187.006073,171.325546 
	C187.103394,205.136642 187.040710,238.948196 187.035950,272.759583 
	C187.035675,274.731262 187.035904,276.702972 187.035904,278.638428 
	C182.200226,277.722809 177.788223,276.542908 173.305847,276.133789 
	C168.653381,275.709167 163.878784,275.566895 159.251541,276.106598 
	C140.041092,278.347229 126.648293,288.835541 119.068405,306.358276 
	C114.547440,316.809570 114.435867,327.611176 119.968353,338.019257 
	C119.980377,338.022003 119.983940,338.041901 120.023621,338.387451 
	C121.376518,340.473236 122.689751,342.213470 123.996887,343.981750 
	C123.990784,344.009735 124.047089,343.999023 124.071136,344.347351 
	C125.616394,346.382416 126.890045,348.421631 128.702026,349.694336 
	C136.235886,354.986023 144.813782,356.034363 153.841797,356.068329 
	C164.122955,356.106995 173.693405,354.504395 182.029419,348.051147 
	C182.046707,348.050812 182.049347,348.016327 182.364441,347.976898 
	C183.451447,347.304230 184.223389,346.670990 185.019623,346.039734 
	C185.043930,346.041718 185.036911,345.993469 185.352356,345.870575 
	C187.223618,344.544647 188.911072,343.477417 190.314392,342.117035 
	C201.480331,331.292969 205.855026,317.552826 205.773438,302.545380 
	C205.670090,283.529694 204.418610,264.523193 204.004761,245.505280 
	C203.693802,231.216629 204.078995,216.913589 203.837448,202.622314 
	C203.735275,196.577515 206.102158,192.265778 211.354797,189.050659 
	C212.498367,188.695801 213.291504,188.372864 214.047974,188.032471 
	C214.011307,188.015045 213.976578,188.088440 214.384277,188.060959 
	C217.248505,187.348251 219.705017,186.663025 222.352539,185.965134 
	C222.543533,185.952484 222.901932,185.817886 223.311127,185.887512 
	C226.206787,185.305634 228.693253,184.654144 231.593231,183.996887 
	C244.349808,181.401657 256.692902,178.812164 269.445618,176.150269 
	C272.607025,175.411774 275.358856,174.745667 278.078003,174.072449 
	C278.045288,174.065353 278.047089,174.132263 278.472656,174.094543 
	C280.193390,173.926071 281.506470,173.890091 282.781036,173.649841 
	C294.853607,171.374115 306.919617,169.063629 319.231598,166.828369 
	C319.641144,166.925018 319.806610,166.956451 320.058289,167.238586 
	C320.429565,167.687729 320.714600,167.886185 321.023499,168.300949 
	C321.047363,168.517258 321.171661,168.934372 321.091064,169.390717 
	C321.013702,173.233521 321.016968,176.619965 321.020203,180.006409 
	C310.469330,182.250961 299.903046,184.425919 289.370880,186.755051 
	C269.589294,191.129654 249.812012,195.525894 230.064392,200.050415 
	C221.110764,202.101852 218.016068,206.045547 218.124344,215.152649 
	C218.349808,234.119690 218.805573,253.084030 219.017227,272.051178 
	C219.167114,285.484436 220.090683,299.015411 218.849533,312.333191 
	C216.938950,332.834137 206.915253,349.335144 189.183701,360.170654 
	C167.561844,373.383423 145.089981,375.645691 122.757362,361.891937 
	C105.562447,351.302216 97.676659,327.498657 103.754387,307.815735 
	C112.020714,281.045013 131.027222,267.088470 157.667892,262.153992 
	C160.413101,261.645538 163.336029,261.792297 166.146790,262.013123 
	C170.434113,262.350037 172.048370,260.775726 171.976593,256.329437 
	C171.756012,242.667587 171.910355,228.999756 171.910324,215.334244 
	C171.910278,191.836197 171.806732,168.337402 171.988831,144.840790 
	C172.021805,140.589050 172.834854,136.243744 173.945969,132.118958 
	C177.053436,120.583054 187.026398,117.394127 196.798279,115.367065 
	C234.195938,107.609375 271.712738,100.425804 309.187866,93.042397 
	C309.834717,92.914970 310.517365,92.969154 311.814941,92.821960 
	C312.704681,92.528900 312.899414,92.298782 313.030701,92.014992 
	C313.030701,92.014992 312.992889,92.025475 313.430542,92.011978 
	C318.088013,91.266327 322.341125,90.685966 326.520752,89.770355 
	C335.191223,87.870972 343.255920,88.384857 350.030640,94.942764 
	C350.190399,95.232430 350.396118,95.484634 350.929443,96.188339 
	C352.187531,99.119759 353.164001,101.562218 354.140442,104.004677 
z"/>
<path fill="#8B51CC" opacity="1.000000" stroke="none" 
	d="
M119.956337,338.016510 
	C114.435867,327.611176 114.547440,316.809570 119.068405,306.358276 
	C126.648293,288.835541 140.041092,278.347229 159.251541,276.106598 
	C163.878784,275.566895 168.653381,275.709167 173.305847,276.133789 
	C177.788223,276.542908 182.200226,277.722809 187.035904,278.638428 
	C187.035904,276.702972 187.035675,274.731262 187.035950,272.759583 
	C187.040710,238.948196 187.103394,205.136642 187.006073,171.325546 
	C186.984192,163.718964 186.241821,156.116547 186.119843,148.507599 
	C185.951950,138.035126 189.264359,133.041504 199.555954,130.166641 
	C209.895081,127.278473 220.492691,125.294662 231.010941,123.075256 
	C239.793655,121.222054 248.619949,119.572769 257.436615,117.883644 
	C272.991882,114.903519 288.561920,111.999992 304.110687,108.986610 
	C311.010010,107.649506 317.853363,106.019363 324.761505,104.733894 
	C327.492645,104.225693 330.338898,104.061722 333.118408,104.157234 
	C336.576172,104.276047 338.420319,106.507843 338.875610,109.814789 
	C339.078308,111.287170 338.939667,112.807869 338.939728,114.306633 
	C338.942719,172.768784 338.968506,231.230942 338.917450,289.693054 
	C338.910126,298.076324 336.631805,305.855286 331.256042,312.807129 
	C330.887909,312.902649 330.794617,312.820892 330.878448,312.442688 
	C333.299164,300.183990 338.257629,289.046539 337.427307,276.231415 
	C336.812531,266.743103 335.420502,258.374054 329.421875,251.206070 
	C327.445709,251.769318 325.262482,252.391586 322.847778,253.018250 
	C322.616272,253.022629 322.154327,253.054565 322.154327,253.054565 
	C322.150391,252.570038 322.146454,252.085510 322.351135,250.926559 
	C322.453918,248.192795 322.348022,246.133453 322.242126,244.074112 
	C322.203003,242.964874 322.163879,241.855637 322.321899,240.113190 
	C322.435608,238.673904 322.352234,237.867813 322.268860,237.061737 
	C322.207367,222.662308 322.145905,208.262878 322.312073,193.027679 
	C322.692719,187.794189 322.845764,183.396484 323.353210,179.056213 
	C324.909302,180.560440 326.692169,181.830429 327.196747,183.489243 
	C328.404419,187.459656 331.407410,189.281555 334.643646,188.240570 
	C336.015472,187.799301 336.226898,183.364273 336.686157,180.696274 
	C336.832916,179.843811 335.917114,178.860962 335.772766,177.895142 
	C335.456482,175.778763 335.093506,173.627960 335.159821,171.504013 
	C335.322632,166.291840 335.720093,161.087067 336.018341,155.879044 
	C336.189270,152.894318 336.617188,149.893997 336.449280,146.927872 
	C336.239746,143.227341 335.490814,139.560013 335.062164,135.868210 
	C334.800201,133.612015 334.522736,131.333252 334.567017,129.070770 
	C334.669708,123.822617 335.444763,118.542290 335.056824,113.341431 
	C334.581360,106.967400 329.735107,104.952560 325.422180,109.778450 
	C321.195282,114.508087 316.132507,114.967308 310.807007,115.911232 
	C302.550720,117.374619 294.489777,120.533867 285.824402,117.513817 
	C283.766754,116.796677 281.025787,118.105392 278.588135,118.386902 
	C277.300140,118.535645 275.988403,118.477722 274.687439,118.515457 
	C271.285919,118.614120 267.795074,118.258522 264.500702,118.904465 
	C256.653900,120.443047 248.898453,122.448761 241.109055,124.278305 
	C236.464645,125.369164 231.641571,125.766205 229.285934,131.292679 
	C228.672943,132.730774 225.163895,133.505142 222.963242,133.551529 
	C220.204346,133.609680 217.105667,131.553940 214.717575,132.275909 
	C209.786728,133.766586 204.991333,134.012283 200.004028,133.510178 
	C196.049133,133.111984 196.094376,137.871277 194.080414,138.686234 
	C187.695938,141.269714 187.767166,146.176208 188.008835,151.453720 
	C188.559784,163.484146 189.171906,175.511780 189.729324,187.541931 
	C189.766968,188.354340 189.575974,189.181274 189.456482,189.996353 
	C188.980545,193.242477 187.950974,196.510178 188.091583,199.727707 
	C189.214188,225.415070 185.265930,251.256973 190.510498,276.838257 
	C191.165985,280.035583 189.416779,282.880676 185.281769,282.087646 
	C181.043289,281.274841 176.309586,281.108215 172.768677,279.010925 
	C166.106232,275.064728 160.845459,279.276154 153.473404,279.943329 
	C155.889252,281.603638 156.972565,282.348145 158.055878,283.092651 
	C156.005112,284.259399 154.171921,284.172089 152.350128,284.279175 
	C149.355591,284.455170 146.356689,284.660858 143.380585,285.025330 
	C136.280472,285.894989 133.260422,292.026367 129.169159,296.557739 
	C122.767448,303.648102 117.565201,311.495880 118.366356,321.746155 
	C118.790894,327.177856 119.419731,332.593567 119.956337,338.016510 
z"/>
<path fill="#1D0C2C" opacity="1.000000" stroke="none" 
	d="
M355.965668,110.045799 
	C355.978516,168.297470 355.997192,226.549149 355.971619,284.800812 
	C355.970978,286.296906 355.485596,287.792847 355.099701,288.682007 
	C354.984436,229.382690 354.995728,170.690186 355.007019,111.997681 
	C355.013367,111.563759 355.019714,111.129845 355.260437,110.365540 
	C355.494843,110.035149 355.965668,110.045799 355.965668,110.045799 
z"/>
<path fill="#2B1D39" opacity="1.000000" stroke="none" 
	d="
M354.785156,111.993423 
	C354.995728,170.690186 354.984436,229.382690 354.960571,288.545471 
	C354.947968,289.015747 354.553528,289.017548 354.356812,289.020142 
	C354.103241,266.241119 354.008942,243.459534 353.997986,220.677917 
	C353.980713,184.757126 354.019440,148.836288 354.077057,112.446198 
	C354.119659,111.976921 354.563324,111.989159 354.785156,111.993423 
z"/>
<path fill="#2B1D39" opacity="1.000000" stroke="none" 
	d="
M350.063141,94.651001 
	C343.255920,88.384857 335.191223,87.870972 326.520752,89.770355 
	C322.341125,90.685966 318.088013,91.266327 313.448639,92.020538 
	C315.574646,90.968979 318.033936,89.355721 320.683441,88.931999 
	C326.534821,87.996216 332.492218,87.129616 338.386963,87.242943 
	C343.254181,87.336517 348.182922,88.734390 350.063141,94.651001 
z"/>
<path fill="#855AB6" opacity="1.000000" stroke="none" 
	d="
M321.961426,253.211182 
	C322.154327,253.054565 322.616272,253.022629 322.827087,253.391144 
	C323.027618,254.506958 323.017334,255.254257 322.816437,256.361115 
	C322.419403,258.184204 322.088348,259.642639 322.027802,261.112183 
	C321.739624,268.105896 321.622833,268.035828 314.912415,267.317871 
	C309.191498,266.705750 303.408325,266.429535 297.655151,266.460480 
	C294.408630,266.477966 291.167053,267.416168 287.923248,267.939636 
	C295.504974,263.851135 303.648285,264.828033 311.727356,265.341492 
	C314.609772,265.524689 317.480286,265.894775 321.106110,266.253815 
	C321.106110,262.073181 321.106110,258.496704 321.056702,254.460205 
	C321.307343,253.845093 321.561066,253.634308 321.961426,253.211182 
z"/>
<path fill="#855AB6" opacity="1.000000" stroke="none" 
	d="
M322.998779,178.998779 
	C322.845764,183.396484 322.692719,187.794189 322.376709,192.558228 
	C321.987274,188.838318 321.760895,184.752060 321.277344,180.336121 
	C321.016968,176.619965 321.013702,173.233521 321.367310,169.597870 
	C322.142151,170.904724 322.560211,172.460800 322.969482,174.389496 
	C322.969086,175.507904 322.977417,176.253723 322.984131,177.332764 
	C322.987915,178.110245 322.993347,178.554520 322.998779,178.998779 
z"/>
<path fill="#2B1D39" opacity="1.000000" stroke="none" 
	d="
M354.359863,103.847687 
	C353.164001,101.562218 352.187531,99.119759 351.129852,96.329498 
	C354.596008,97.465683 355.618927,100.105865 354.359863,103.847687 
z"/>
<path fill="#855AB6" opacity="1.000000" stroke="none" 
	d="
M322.152893,244.493820 
	C322.348022,246.133453 322.453918,248.192795 322.409698,250.567520 
	C322.194275,248.893112 322.128967,246.903320 322.152893,244.493820 
z"/>
<path fill="#2B1D39" opacity="1.000000" stroke="none" 
	d="
M355.973328,109.736870 
	C355.965668,110.045799 355.494843,110.035149 355.259705,110.040062 
	C355.024536,109.080597 355.024536,108.116211 355.024536,107.151833 
	C355.227997,107.119499 355.431458,107.087158 355.634918,107.054825 
	C355.750275,107.845863 355.865631,108.636902 355.973328,109.736870 
z"/>
<path fill="#855AB6" opacity="1.000000" stroke="none" 
	d="
M322.185242,237.414734 
	C322.352234,237.867813 322.435608,238.673904 322.390808,239.701355 
	C322.208923,239.204407 322.155273,238.486053 322.185242,237.414734 
z"/>
<path fill="#2B1D39" opacity="1.000000" stroke="none" 
	d="
M312.851624,92.145454 
	C312.899414,92.298782 312.704681,92.528900 312.236176,92.791512 
	C312.226898,92.661514 312.442505,92.460930 312.851624,92.145454 
z"/>
<path fill="#8E4DD1" opacity="1.000000" stroke="none" 
	d="
M323.353210,179.056213 
	C322.993347,178.554520 322.987915,178.110245 323.201965,177.171326 
	C323.273682,175.790054 323.125977,174.903473 322.978241,174.016876 
	C322.560211,172.460800 322.142151,170.904724 321.447876,169.141510 
	C321.171661,168.934372 321.047363,168.517258 320.896118,168.079803 
	C320.487244,167.424194 320.229645,167.206055 319.972076,166.987900 
	C319.806610,166.956451 319.641144,166.925018 318.867249,166.676666 
	C316.446716,166.320953 314.567444,165.801682 312.833832,166.107620 
	C304.214508,167.628647 295.609253,169.253891 287.051910,171.088898 
	C283.974304,171.748856 281.044403,173.097778 278.047089,174.132263 
	C278.047089,174.132263 278.045288,174.065353 277.631653,174.056396 
	C274.490662,174.772507 271.763336,175.497604 269.036011,176.222687 
	C256.692902,178.812164 244.349808,181.401657 231.176483,183.994019 
	C227.864822,184.603897 225.383377,185.210892 222.901932,185.817886 
	C222.901932,185.817886 222.543533,185.952484 221.932343,185.960815 
	C218.872940,186.675583 216.424759,187.382004 213.976578,188.088440 
	C213.976578,188.088440 214.011307,188.015045 213.665024,188.010117 
	C212.553787,188.008331 211.788849,188.011475 210.615646,188.012863 
	C208.573746,188.570938 205.995529,188.675201 205.468185,189.768585 
	C203.047104,194.788498 200.180847,199.707077 201.044846,205.809448 
	C201.762802,210.880310 201.888718,216.058060 201.957779,221.192764 
	C202.091553,231.141174 201.778992,241.099548 202.089920,251.040070 
	C202.264175,256.610962 203.445190,262.143463 203.917084,267.714905 
	C204.138351,270.327423 203.621124,272.993500 203.668289,275.631195 
	C203.958298,291.851105 205.875748,308.284607 199.470322,323.808960 
	C197.316635,329.028687 193.545670,333.592621 190.419815,338.395081 
	C188.727875,340.994507 186.837677,343.464874 185.036911,345.993469 
	C185.036911,345.993469 185.043930,346.041718 184.699280,346.072845 
	C183.586197,346.741425 182.817780,347.378876 182.049347,348.016327 
	C182.049347,348.016327 182.046707,348.050812 181.644165,348.051575 
	C180.274338,348.241760 179.155945,348.180481 178.362625,348.658569 
	C167.981064,354.915039 156.500824,354.468658 145.125122,353.791565 
	C141.533905,353.577820 137.904510,351.845551 134.558685,350.250214 
	C130.894348,348.503052 127.537781,346.110382 124.047089,343.999023 
	C124.047089,343.999023 123.990784,344.009735 123.963524,343.630615 
	C122.618828,341.514984 121.301384,339.778442 119.983940,338.041901 
	C119.983940,338.041901 119.980377,338.022003 119.968353,338.019257 
	C119.419731,332.593567 118.790894,327.177856 118.366356,321.746155 
	C117.565201,311.495880 122.767448,303.648102 129.169159,296.557739 
	C133.260422,292.026367 136.280472,285.894989 143.380585,285.025330 
	C146.356689,284.660858 149.355591,284.455170 152.350128,284.279175 
	C154.171921,284.172089 156.005112,284.259399 158.055878,283.092651 
	C156.972565,282.348145 155.889252,281.603638 153.473404,279.943329 
	C160.845459,279.276154 166.106232,275.064728 172.768677,279.010925 
	C176.309586,281.108215 181.043289,281.274841 185.281769,282.087646 
	C189.416779,282.880676 191.165985,280.035583 190.510498,276.838257 
	C185.265930,251.256973 189.214188,225.415070 188.091583,199.727707 
	C187.950974,196.510178 188.980545,193.242477 189.456482,189.996353 
	C189.575974,189.181274 189.766968,188.354340 189.729324,187.541931 
	C189.171906,175.511780 188.559784,163.484146 188.008835,151.453720 
	C187.767166,146.176208 187.695938,141.269714 194.080414,138.686234 
	C196.094376,137.871277 196.049133,133.111984 200.004028,133.510178 
	C204.991333,134.012283 209.786728,133.766586 214.717575,132.275909 
	C217.105667,131.553940 220.204346,133.609680 222.963242,133.551529 
	C225.163895,133.505142 228.672943,132.730774 229.285934,131.292679 
	C231.641571,125.766205 236.464645,125.369164 241.109055,124.278305 
	C248.898453,122.448761 256.653900,120.443047 264.500702,118.904465 
	C267.795074,118.258522 271.285919,118.614120 274.687439,118.515457 
	C275.988403,118.477722 277.300140,118.535645 278.588135,118.386902 
	C281.025787,118.105392 283.766754,116.796677 285.824402,117.513817 
	C294.489777,120.533867 302.550720,117.374619 310.807007,115.911232 
	C316.132507,114.967308 321.195282,114.508087 325.422180,109.778450 
	C329.735107,104.952560 334.581360,106.967400 335.056824,113.341431 
	C335.444763,118.542290 334.669708,123.822617 334.567017,129.070770 
	C334.522736,131.333252 334.800201,133.612015 335.062164,135.868210 
	C335.490814,139.560013 336.239746,143.227341 336.449280,146.927872 
	C336.617188,149.893997 336.189270,152.894318 336.018341,155.879044 
	C335.720093,161.087067 335.322632,166.291840 335.159821,171.504013 
	C335.093506,173.627960 335.456482,175.778763 335.772766,177.895142 
	C335.917114,178.860962 336.832916,179.843811 336.686157,180.696274 
	C336.226898,183.364273 336.015472,187.799301 334.643646,188.240570 
	C331.407410,189.281555 328.404419,187.459656 327.196747,183.489243 
	C326.692169,181.830429 324.909302,180.560440 323.353210,179.056213 
M190.987289,202.628220 
	C190.765457,201.545639 190.543640,200.463058 190.321808,199.380463 
	C189.902481,199.441071 189.483154,199.501663 189.063828,199.562271 
	C189.172028,201.881271 189.280243,204.200272 189.388443,206.519272 
	C189.758606,206.523224 190.128769,206.527161 190.498947,206.531113 
	C190.661728,205.473053 190.824509,204.414993 190.987289,202.628220 
M243.031982,127.852211 
	C242.754196,127.761360 242.476395,127.670509 242.198608,127.579659 
	C242.187866,127.854828 242.177124,128.130005 242.166382,128.405167 
	C242.450211,128.329041 242.734055,128.252914 243.031982,127.852211 
M332.064331,180.238159 
	C331.974823,180.109665 331.885315,179.981155 331.795776,179.852646 
	C331.820862,179.978104 331.845978,180.103546 332.064331,180.238159 
M259.761841,126.064255 
	C259.890289,125.974754 260.018768,125.885262 260.147217,125.795776 
	C260.021820,125.820862 259.896393,125.845955 259.761841,126.064255 
z"/>
<path fill="#8B51CC" opacity="1.000000" stroke="none" 
	d="
M287.954437,267.953369 
	C291.167053,267.416168 294.408630,266.477966 297.655151,266.460480 
	C303.408325,266.429535 309.191498,266.705750 314.912415,267.317871 
	C321.622833,268.035828 321.739624,268.105896 322.027802,261.112183 
	C322.088348,259.642639 322.419403,258.184204 323.120667,256.524719 
	C327.302979,259.551147 326.333038,269.928619 321.802521,271.416382 
	C317.820526,272.723999 313.333496,273.430206 309.194641,273.047821 
	C305.413177,272.698456 302.477844,272.123627 300.532776,276.241699 
	C300.105957,277.145355 298.252472,277.991669 297.175201,277.863342 
	C292.845642,277.347656 288.380096,276.948029 284.328522,275.492767 
	C281.721893,274.556519 280.407684,274.682648 278.231323,276.316895 
	C275.142822,278.636139 271.461182,280.165466 267.857361,281.868073 
	C267.681702,281.703827 267.324341,281.381866 267.324341,281.381866 
	C271.674500,274.986938 278.087769,271.557343 285.781616,268.915527 
	C286.969604,268.517395 287.488220,268.209839 288.006805,267.902313 
	C288.006805,267.902313 287.985626,267.967072 287.954437,267.953369 
z"/>
<path fill="#8B51CC" opacity="1.000000" stroke="none" 
	d="
M185.352356,345.870575 
	C186.837677,343.464874 188.727875,340.994507 190.419815,338.395081 
	C193.545670,333.592621 197.316635,329.028687 199.470322,323.808960 
	C205.875748,308.284607 203.958298,291.851105 203.668289,275.631195 
	C203.621124,272.993500 204.138351,270.327423 203.917084,267.714905 
	C203.445190,262.143463 202.264175,256.610962 202.089920,251.040070 
	C201.778992,241.099548 202.091553,231.141174 201.957779,221.192764 
	C201.888718,216.058060 201.762802,210.880310 201.044846,205.809448 
	C200.180847,199.707077 203.047104,194.788498 205.468185,189.768585 
	C205.995529,188.675201 208.573746,188.570938 210.609619,188.279663 
	C211.009354,188.726318 211.006866,188.904449 211.004364,189.082565 
	C206.102158,192.265778 203.735275,196.577515 203.837448,202.622314 
	C204.078995,216.913589 203.693802,231.216629 204.004761,245.505280 
	C204.418610,264.523193 205.670090,283.529694 205.773438,302.545380 
	C205.855026,317.552826 201.480331,331.292969 190.314392,342.117035 
	C188.911072,343.477417 187.223618,344.544647 185.352356,345.870575 
z"/>
<path fill="#8B51CC" opacity="1.000000" stroke="none" 
	d="
M330.934479,312.943604 
	C327.840515,319.330994 322.333008,323.160339 316.279327,326.127472 
	C304.105927,332.094086 291.635254,334.149994 278.395111,329.128662 
	C259.919189,322.121674 253.724258,302.297729 263.541870,286.091583 
	C264.466156,284.565796 265.718048,283.238464 267.071106,281.600433 
	C267.324341,281.381866 267.681702,281.703827 267.828308,282.237183 
	C266.622894,285.765137 265.869934,289.275055 263.814514,291.664764 
	C255.142181,301.747772 263.852570,318.498962 272.373169,323.535675 
	C285.867981,331.512665 299.793732,332.041901 313.783905,325.185303 
	C317.359680,323.432800 322.151062,321.943390 321.612335,317.596802 
	C325.148743,315.757446 327.971680,314.289154 330.794617,312.820892 
	C330.794617,312.820892 330.887909,312.902649 330.934479,312.943604 
z"/>
<path fill="#8B51CC" opacity="1.000000" stroke="none" 
	d="
M124.071136,344.347351 
	C127.537781,346.110382 130.894348,348.503052 134.558685,350.250214 
	C137.904510,351.845551 141.533905,353.577820 145.125122,353.791565 
	C156.500824,354.468658 167.981064,354.915039 178.362625,348.658569 
	C179.155945,348.180481 180.274338,348.241760 181.626877,348.051880 
	C173.693405,354.504395 164.122955,356.106995 153.841797,356.068329 
	C144.813782,356.034363 136.235886,354.986023 128.702026,349.694336 
	C126.890045,348.421631 125.616394,346.382416 124.071136,344.347351 
z"/>
<path fill="#855AB6" opacity="1.000000" stroke="none" 
	d="
M278.472656,174.094543 
	C281.044403,173.097778 283.974304,171.748856 287.051910,171.088898 
	C295.609253,169.253891 304.214508,167.628647 312.833832,166.107620 
	C314.567444,165.801682 316.446716,166.320953 318.623169,166.611450 
	C306.919617,169.063629 294.853607,171.374115 282.781036,173.649841 
	C281.506470,173.890091 280.193390,173.926071 278.472656,174.094543 
z"/>
<path fill="#855AB6" opacity="1.000000" stroke="none" 
	d="
M269.445618,176.150269 
	C271.763336,175.497604 274.490662,174.772507 277.664337,174.063492 
	C275.358856,174.745667 272.607025,175.411774 269.445618,176.150269 
z"/>
<path fill="#8B51CC" opacity="1.000000" stroke="none" 
	d="
M120.023621,338.387451 
	C121.301384,339.778442 122.618828,341.514984 123.969620,343.602631 
	C122.689751,342.213470 121.376518,340.473236 120.023621,338.387451 
z"/>
<path fill="#9069C0" opacity="1.000000" stroke="none" 
	d="
M214.384277,188.060944 
	C216.424759,187.382004 218.872940,186.675583 221.741333,185.973465 
	C219.705017,186.663025 217.248505,187.348251 214.384277,188.060944 
z"/>
<path fill="#9069C0" opacity="1.000000" stroke="none" 
	d="
M223.311127,185.887512 
	C225.383377,185.210892 227.864822,184.603897 230.763000,183.999771 
	C228.693253,184.654144 226.206787,185.305634 223.311127,185.887512 
z"/>
<path fill="#8B51CC" opacity="1.000000" stroke="none" 
	d="
M182.364441,347.976898 
	C182.817780,347.378876 183.586197,346.741425 184.674988,346.070862 
	C184.223389,346.670990 183.451447,347.304230 182.364441,347.976898 
z"/>
<path fill="#9069C0" opacity="1.000000" stroke="none" 
	d="
M211.354797,189.050659 
	C211.006866,188.904449 211.009354,188.726318 211.017853,188.281403 
	C211.788849,188.011475 212.553787,188.008331 213.701691,188.027557 
	C213.291504,188.372864 212.498367,188.695801 211.354797,189.050659 
z"/>
<path fill="#855AB6" opacity="1.000000" stroke="none" 
	d="
M287.686157,267.938599 
	C287.488220,268.209839 286.969604,268.517395 286.154968,268.894592 
	C286.361145,268.634460 286.863342,268.304657 287.686157,267.938599 
z"/>
<path fill="#855AB6" opacity="1.000000" stroke="none" 
	d="
M320.058289,167.238586 
	C320.229645,167.206055 320.487244,167.424194 320.872253,167.863495 
	C320.714600,167.886185 320.429565,167.687729 320.058289,167.238586 
z"/>
<path fill="#8D4CD1" opacity="1.000000" stroke="none" 
	d="
M330.878448,312.442688 
	C327.971680,314.289154 325.148743,315.757446 321.612335,317.596802 
	C322.151062,321.943390 317.359680,323.432800 313.783905,325.185303 
	C299.793732,332.041901 285.867981,331.512665 272.373169,323.535675 
	C263.852570,318.498962 255.142181,301.747772 263.814514,291.664764 
	C265.869934,289.275055 266.622894,285.765137 268.003967,282.401428 
	C271.461182,280.165466 275.142822,278.636139 278.231323,276.316895 
	C280.407684,274.682648 281.721893,274.556519 284.328522,275.492767 
	C288.380096,276.948029 292.845642,277.347656 297.175201,277.863342 
	C298.252472,277.991669 300.105957,277.145355 300.532776,276.241699 
	C302.477844,272.123627 305.413177,272.698456 309.194641,273.047821 
	C313.333496,273.430206 317.820526,272.723999 321.802521,271.416382 
	C326.333038,269.928619 327.302979,259.551147 323.311279,256.165161 
	C323.017334,255.254257 323.027618,254.506958 323.058594,253.386749 
	C325.262482,252.391586 327.445709,251.769318 329.421875,251.206070 
	C335.420502,258.374054 336.812531,266.743103 337.427307,276.231415 
	C338.257629,289.046539 333.299164,300.183990 330.878448,312.442688 
z"/>
<path fill="#8B51CC" opacity="1.000000" stroke="none" 
	d="
M322.969482,174.389496 
	C323.125977,174.903473 323.273682,175.790054 323.203583,176.838089 
	C322.977417,176.253723 322.969086,175.507904 322.969482,174.389496 
z"/>
<path fill="#8B51CC" opacity="1.000000" stroke="none" 
	d="
M190.987305,202.992584 
	C190.824509,204.414993 190.661728,205.473053 190.498947,206.531113 
	C190.128769,206.527161 189.758606,206.523224 189.388443,206.519272 
	C189.280243,204.200272 189.172028,201.881271 189.063828,199.562271 
	C189.483154,199.501663 189.902481,199.441071 190.321808,199.380463 
	C190.543640,200.463058 190.765457,201.545639 190.987305,202.992584 
z"/>
<path fill="#8B51CC" opacity="1.000000" stroke="none" 
	d="
M243.024933,128.014511 
	C242.734055,128.252914 242.450211,128.329041 242.166382,128.405167 
	C242.177124,128.130005 242.187866,127.854828 242.198608,127.579659 
	C242.476395,127.670509 242.754196,127.761360 243.024933,128.014511 
z"/>
<path fill="#8B51CC" opacity="1.000000" stroke="none" 
	d="
M331.967712,180.233582 
	C331.845978,180.103546 331.820862,179.978104 331.795776,179.852646 
	C331.885315,179.981155 331.974823,180.109665 331.967712,180.233582 
z"/>
<path fill="#8B51CC" opacity="1.000000" stroke="none" 
	d="
M259.766418,125.967651 
	C259.896393,125.845955 260.021820,125.820862 260.147217,125.795769 
	C260.018768,125.885262 259.890289,125.974754 259.766418,125.967651 
z"/>
</svg>